<mxfile host="app.diagrams.net" modified="2022-02-03T05:25:45.712Z" agent="5.0 (Windows NT 10.0; Win64; x64) AppleWebKit/537.36 (KHTML, like Gecko) Chrome/97.0.4692.99 Safari/537.36" etag="rU305Gol5dfzA3LtSSXg" version="16.5.2" type="github">
  <diagram id="t1b7Nj7U0nxYy8T6y3BF" name="Page-1">
    <mxGraphModel dx="1422" dy="729" grid="1" gridSize="10" guides="1" tooltips="1" connect="1" arrows="1" fold="1" page="1" pageScale="1" pageWidth="850" pageHeight="1100" math="0" shadow="0">
      <root>
        <mxCell id="0" />
        <mxCell id="1" parent="0" />
        <mxCell id="-ZPcpFO9Cl7EG4aILpMb-1" value="&lt;font face=&quot;Lucida Console&quot; style=&quot;font-size: 14px&quot;&gt;Package p1;&lt;/font&gt;" style="rounded=1;whiteSpace=wrap;html=1;align=center;imageVerticalAlign=middle;verticalAlign=top;glass=0;arcSize=6;fontSize=14;fontStyle=1" vertex="1" parent="1">
          <mxGeometry x="80" y="80" width="520" height="480" as="geometry" />
        </mxCell>
        <mxCell id="-ZPcpFO9Cl7EG4aILpMb-3" value="&lt;font face=&quot;Lucida Console&quot; style=&quot;font-size: 14px&quot;&gt;Package p2;&lt;/font&gt;" style="rounded=1;whiteSpace=wrap;html=1;align=center;imageVerticalAlign=middle;verticalAlign=top;arcSize=6;fontSize=14;fontStyle=1" vertex="1" parent="1">
          <mxGeometry x="400" y="320" width="560" height="240" as="geometry" />
        </mxCell>
        <mxCell id="-ZPcpFO9Cl7EG4aILpMb-4" value="&lt;div style=&quot;text-align: left ; font-size: 13px&quot;&gt;&lt;span style=&quot;font-size: 13px&quot;&gt;public class C1 {&lt;/span&gt;&lt;/div&gt;&lt;div style=&quot;text-align: left ; font-size: 13px&quot;&gt;&amp;nbsp; &lt;b style=&quot;font-size: 13px&quot;&gt;public &lt;/b&gt;int x;&lt;/div&gt;&lt;div style=&quot;text-align: left ; font-size: 13px&quot;&gt;&amp;nbsp; &lt;b style=&quot;font-size: 13px&quot;&gt;protected &lt;/b&gt;int y;&lt;/div&gt;&lt;div style=&quot;text-align: left ; font-size: 13px&quot;&gt;&amp;nbsp; int z;&lt;/div&gt;&lt;div style=&quot;text-align: left ; font-size: 13px&quot;&gt;&amp;nbsp; &lt;b style=&quot;font-size: 13px&quot;&gt;private &lt;/b&gt;int u;&lt;/div&gt;&lt;div style=&quot;text-align: left ; font-size: 13px&quot;&gt;&lt;span&gt;&lt;br&gt;&lt;/span&gt;&lt;/div&gt;&lt;div style=&quot;text-align: left ; font-size: 13px&quot;&gt;&lt;span&gt;&amp;nbsp;&amp;nbsp;&lt;/span&gt;&lt;b&gt;protected &lt;/b&gt;&lt;span&gt;void m() {&lt;/span&gt;&lt;br&gt;&lt;/div&gt;&lt;div style=&quot;text-align: left ; font-size: 13px&quot;&gt;&amp;nbsp; }&lt;/div&gt;&lt;div style=&quot;text-align: left ; font-size: 13px&quot;&gt;&lt;span style=&quot;font-size: 13px&quot;&gt;}&lt;/span&gt;&lt;/div&gt;" style="rounded=0;whiteSpace=wrap;html=1;fontFamily=Lucida Console;fontSize=13;fontColor=#FFFFFF;strokeColor=default;fillColor=#000000;" vertex="1" parent="1">
          <mxGeometry x="120" y="120" width="200" height="160" as="geometry" />
        </mxCell>
        <mxCell id="-ZPcpFO9Cl7EG4aILpMb-5" value="&lt;div style=&quot;text-align: left; font-size: 13px;&quot;&gt;&lt;span style=&quot;font-size: 13px;&quot;&gt;public class C2 {&lt;/span&gt;&lt;/div&gt;&lt;div style=&quot;text-align: left; font-size: 13px;&quot;&gt;&lt;span style=&quot;font-size: 13px;&quot;&gt;&amp;nbsp; C1 c = new C1();&lt;/span&gt;&lt;/div&gt;&lt;div style=&quot;text-align: left; font-size: 13px;&quot;&gt;&lt;span style=&quot;font-size: 13px;&quot;&gt;&lt;br style=&quot;font-size: 13px;&quot;&gt;&lt;/span&gt;&lt;/div&gt;&lt;div style=&quot;text-align: left; font-size: 13px;&quot;&gt;&lt;span style=&quot;font-size: 13px;&quot;&gt;&amp;nbsp; can access c.x;&lt;/span&gt;&lt;/div&gt;&lt;div style=&quot;text-align: left; font-size: 13px;&quot;&gt;&lt;span style=&quot;font-size: 13px;&quot;&gt;&amp;nbsp; can access c.y;&lt;/span&gt;&lt;/div&gt;&lt;div style=&quot;text-align: left; font-size: 13px;&quot;&gt;&lt;span style=&quot;font-size: 13px;&quot;&gt;&amp;nbsp; can access c.z;&lt;/span&gt;&lt;/div&gt;&lt;div style=&quot;text-align: left; font-size: 13px;&quot;&gt;&lt;span style=&quot;font-size: 13px;&quot;&gt;&amp;nbsp; cannot access c.u;&lt;/span&gt;&lt;/div&gt;&lt;div style=&quot;text-align: left; font-size: 13px;&quot;&gt;&lt;span style=&quot;font-size: 13px;&quot;&gt;&lt;br style=&quot;font-size: 13px;&quot;&gt;&lt;/span&gt;&lt;/div&gt;&lt;div style=&quot;text-align: left; font-size: 13px;&quot;&gt;&lt;span style=&quot;font-size: 13px;&quot;&gt;&amp;nbsp; can invoke c.m();&lt;/span&gt;&lt;/div&gt;&lt;div style=&quot;text-align: left; font-size: 13px;&quot;&gt;&lt;span style=&quot;font-size: 13px;&quot;&gt;}&lt;/span&gt;&lt;/div&gt;" style="rounded=0;whiteSpace=wrap;html=1;fontFamily=Lucida Console;fontSize=13;fontColor=#FFFFFF;strokeColor=default;fillColor=#000000;" vertex="1" parent="1">
          <mxGeometry x="360" y="120" width="200" height="160" as="geometry" />
        </mxCell>
        <mxCell id="-ZPcpFO9Cl7EG4aILpMb-7" style="edgeStyle=orthogonalEdgeStyle;curved=1;rounded=0;orthogonalLoop=1;jettySize=auto;html=1;exitX=0.5;exitY=0;exitDx=0;exitDy=0;entryX=0.75;entryY=1;entryDx=0;entryDy=0;fontFamily=Lucida Console;fontSize=12;fontColor=#FFFFFF;endArrow=block;endFill=0;endSize=14;fontStyle=0;strokeWidth=3;" edge="1" parent="1" source="-ZPcpFO9Cl7EG4aILpMb-6" target="-ZPcpFO9Cl7EG4aILpMb-4">
          <mxGeometry relative="1" as="geometry" />
        </mxCell>
        <mxCell id="-ZPcpFO9Cl7EG4aILpMb-6" value="&lt;div style=&quot;text-align: left; font-size: 13px;&quot;&gt;&lt;span style=&quot;font-size: 13px;&quot;&gt;public class C3 extends C1 {&lt;/span&gt;&lt;/div&gt;&lt;div style=&quot;text-align: left; font-size: 13px;&quot;&gt;&lt;span style=&quot;font-size: 13px;&quot;&gt;&amp;nbsp;&amp;nbsp;&lt;/span&gt;&lt;span style=&quot;font-size: 13px;&quot;&gt;can access c.x;&lt;/span&gt;&lt;/div&gt;&lt;div style=&quot;text-align: left; font-size: 13px;&quot;&gt;&lt;span style=&quot;font-size: 13px;&quot;&gt;&amp;nbsp; can access c.y;&lt;/span&gt;&lt;/div&gt;&lt;div style=&quot;text-align: left; font-size: 13px;&quot;&gt;&lt;span style=&quot;font-size: 13px;&quot;&gt;&amp;nbsp; can access c.z;&lt;/span&gt;&lt;/div&gt;&lt;div style=&quot;text-align: left; font-size: 13px;&quot;&gt;&lt;span style=&quot;font-size: 13px;&quot;&gt;&amp;nbsp; cannot access c.u;&lt;/span&gt;&lt;/div&gt;&lt;div style=&quot;text-align: left; font-size: 13px;&quot;&gt;&lt;span style=&quot;font-size: 13px;&quot;&gt;&lt;br style=&quot;font-size: 13px;&quot;&gt;&lt;/span&gt;&lt;/div&gt;&lt;div style=&quot;text-align: left; font-size: 13px;&quot;&gt;&lt;span style=&quot;font-size: 13px;&quot;&gt;&amp;nbsp; can invoke c.m();&lt;/span&gt;&lt;/div&gt;&lt;div style=&quot;text-align: left; font-size: 13px;&quot;&gt;&lt;span style=&quot;font-size: 13px;&quot;&gt;}&lt;/span&gt;&lt;/div&gt;" style="rounded=0;whiteSpace=wrap;html=1;fontFamily=Lucida Console;fontSize=13;fontColor=#FFFFFF;strokeColor=default;fillColor=#000000;" vertex="1" parent="1">
          <mxGeometry x="120" y="360" width="240" height="160" as="geometry" />
        </mxCell>
        <mxCell id="-ZPcpFO9Cl7EG4aILpMb-8" value="&lt;div style=&quot;text-align: left; font-size: 13px;&quot;&gt;&lt;span style=&quot;font-size: 13px;&quot;&gt;public class C4 extends C1 {&lt;/span&gt;&lt;/div&gt;&lt;div style=&quot;text-align: left; font-size: 13px;&quot;&gt;&lt;span style=&quot;font-size: 13px;&quot;&gt;&amp;nbsp;&amp;nbsp;&lt;/span&gt;&lt;span style=&quot;font-size: 13px;&quot;&gt;can access c.x;&lt;/span&gt;&lt;/div&gt;&lt;div style=&quot;text-align: left; font-size: 13px;&quot;&gt;&lt;span style=&quot;font-size: 13px;&quot;&gt;&amp;nbsp; can access c.y;&lt;/span&gt;&lt;/div&gt;&lt;div style=&quot;text-align: left; font-size: 13px;&quot;&gt;&lt;span style=&quot;font-size: 13px;&quot;&gt;&amp;nbsp;&amp;nbsp;&lt;/span&gt;cannot&amp;nbsp;&lt;span style=&quot;font-size: 13px;&quot;&gt;access c.z;&lt;/span&gt;&lt;/div&gt;&lt;div style=&quot;text-align: left; font-size: 13px;&quot;&gt;&lt;span style=&quot;font-size: 13px;&quot;&gt;&amp;nbsp; cannot access c.u;&lt;/span&gt;&lt;/div&gt;&lt;div style=&quot;text-align: left; font-size: 13px;&quot;&gt;&lt;span style=&quot;font-size: 13px;&quot;&gt;&lt;br style=&quot;font-size: 13px;&quot;&gt;&lt;/span&gt;&lt;/div&gt;&lt;div style=&quot;text-align: left; font-size: 13px;&quot;&gt;&lt;span style=&quot;font-size: 13px;&quot;&gt;&amp;nbsp; can invoke c.m();&lt;/span&gt;&lt;/div&gt;&lt;div style=&quot;text-align: left; font-size: 13px;&quot;&gt;&lt;span style=&quot;font-size: 13px;&quot;&gt;}&lt;/span&gt;&lt;/div&gt;" style="rounded=0;whiteSpace=wrap;html=1;fontFamily=Lucida Console;fontSize=13;fontColor=#FFFFFF;strokeColor=default;fillColor=#000000;" vertex="1" parent="1">
          <mxGeometry x="440" y="360" width="240" height="160" as="geometry" />
        </mxCell>
        <mxCell id="-ZPcpFO9Cl7EG4aILpMb-9" value="&lt;div style=&quot;text-align: left; font-size: 13px;&quot;&gt;&lt;span style=&quot;font-size: 13px;&quot;&gt;public class C5 {&lt;/span&gt;&lt;/div&gt;&lt;div style=&quot;text-align: left; font-size: 13px;&quot;&gt;&lt;span style=&quot;font-size: 13px;&quot;&gt;&amp;nbsp; C1 c = new C1();&lt;/span&gt;&lt;/div&gt;&lt;div style=&quot;text-align: left; font-size: 13px;&quot;&gt;&lt;span style=&quot;font-size: 13px;&quot;&gt;&lt;br style=&quot;font-size: 13px;&quot;&gt;&lt;/span&gt;&lt;/div&gt;&lt;div style=&quot;text-align: left; font-size: 13px;&quot;&gt;&lt;span style=&quot;font-size: 13px;&quot;&gt;&amp;nbsp; can access c.x;&lt;/span&gt;&lt;/div&gt;&lt;div style=&quot;text-align: left; font-size: 13px;&quot;&gt;&lt;span style=&quot;font-size: 13px;&quot;&gt;&amp;nbsp;&amp;nbsp;&lt;/span&gt;cannot&amp;nbsp;&lt;span style=&quot;font-size: 13px;&quot;&gt;&amp;nbsp;access c.y;&lt;/span&gt;&lt;/div&gt;&lt;div style=&quot;text-align: left; font-size: 13px;&quot;&gt;&lt;span style=&quot;font-size: 13px;&quot;&gt;&amp;nbsp;&amp;nbsp;&lt;/span&gt;cannot&amp;nbsp;&lt;span style=&quot;font-size: 13px;&quot;&gt;access c.z;&lt;/span&gt;&lt;/div&gt;&lt;div style=&quot;text-align: left; font-size: 13px;&quot;&gt;&lt;span style=&quot;font-size: 13px;&quot;&gt;&amp;nbsp; cannot access c.u;&lt;/span&gt;&lt;/div&gt;&lt;div style=&quot;text-align: left; font-size: 13px;&quot;&gt;&lt;span style=&quot;font-size: 13px;&quot;&gt;&lt;br style=&quot;font-size: 13px;&quot;&gt;&lt;/span&gt;&lt;/div&gt;&lt;div style=&quot;text-align: left; font-size: 13px;&quot;&gt;&lt;span style=&quot;font-size: 13px;&quot;&gt;&amp;nbsp;&amp;nbsp;&lt;/span&gt;cannot&amp;nbsp;&lt;span style=&quot;font-size: 13px;&quot;&gt;invoke c.m();&lt;/span&gt;&lt;/div&gt;&lt;div style=&quot;text-align: left; font-size: 13px;&quot;&gt;&lt;span style=&quot;font-size: 13px;&quot;&gt;}&lt;/span&gt;&lt;/div&gt;" style="rounded=0;whiteSpace=wrap;html=1;fontFamily=Lucida Console;fontSize=13;fontColor=#FFFFFF;strokeColor=default;fillColor=#000000;" vertex="1" parent="1">
          <mxGeometry x="720" y="360" width="200" height="160" as="geometry" />
        </mxCell>
        <mxCell id="-ZPcpFO9Cl7EG4aILpMb-10" style="edgeStyle=orthogonalEdgeStyle;curved=1;rounded=0;orthogonalLoop=1;jettySize=auto;html=1;exitX=0.25;exitY=0;exitDx=0;exitDy=0;entryX=0.75;entryY=1;entryDx=0;entryDy=0;fontFamily=Lucida Console;fontSize=12;fontColor=#FFFFFF;endArrow=block;endFill=0;endSize=14;fontStyle=0;strokeWidth=3;" edge="1" parent="1" source="-ZPcpFO9Cl7EG4aILpMb-8" target="-ZPcpFO9Cl7EG4aILpMb-4">
          <mxGeometry relative="1" as="geometry">
            <mxPoint x="250" y="370" as="sourcePoint" />
            <mxPoint x="230" y="290" as="targetPoint" />
          </mxGeometry>
        </mxCell>
      </root>
    </mxGraphModel>
  </diagram>
</mxfile>
